<!-- @license lucide-static v1.53.0 - ISC -->
<svg xmlns="http://www.w3.org/2000/svg">
<symbol id="amphora" viewBox="0 0 24 24" fill="none" stroke="currentColor" stroke-width="2" stroke-linecap="round" stroke-linejoin="round"><path d="M10 2v5.632c0 .424-.272.795-.653.982A6 6 0 0 0 6 14c.006 4 3 7 5 8"/><path d="M10 5H8a2 2 0 0 0 0 4h.68"/><path d="M14 2v5.632c0 .424.272.795.652.982A6 6 0 0 1 18 14c0 4-3 7-5 8"/><path d="M14 5h2a2 2 0 0 1 0 4h-.68"/><path d="M18 22H6"/><path d="M9 2h6"/></symbol>
<symbol id="anvil" viewBox="0 0 24 24" fill="none" stroke="currentColor" stroke-width="2" stroke-linecap="round" stroke-linejoin="round"><path d="M7 10H6a4 4 0 0 1-4-4 1 1 0 0 1 1-1h4"/><path d="M7 5a1 1 0 0 1 1-1h13a1 1 0 0 1 1 1 7 7 0 0 1-7 7H8a1 1 0 0 1-1-1z"/><path d="M9 12v5"/><path d="M15 12v5"/><path d="M5 20a3 3 0 0 1 3-3h8a3 3 0 0 1 3 3 1 1 0 0 1-1 1H6a1 1 0 0 1-1-1"/></symbol>
<symbol id="apple" viewBox="0 0 24 24" fill="none" stroke="currentColor" stroke-width="2" stroke-linecap="round" stroke-linejoin="round"><path d="M12 6.528V3a1 1 0 0 1 1-1h0"/><path d="M18.237 21A15 15 0 0 0 22 11a6 6 0 0 0-10-4.472A6 6 0 0 0 2 11a15.1 15.1 0 0 0 3.763 10 3 3 0 0 0 3.648.648 5.5 5.5 0 0 1 5.178 0A3 3 0 0 0 18.237 21"/></symbol>
<symbol id="bean" viewBox="0 0 24 24" fill="none" stroke="currentColor" stroke-width="2" stroke-linecap="round" stroke-linejoin="round"><path d="M10.165 6.598C9.954 7.478 9.64 8.36 9 9c-.64.64-1.521.954-2.402 1.165A6 6 0 0 0 8 22c7.732 0 14-6.268 14-14a6 6 0 0 0-11.835-1.402Z"/><path d="M5.341 10.62a4 4 0 1 0 5.279-5.28"/></symbol>
<symbol id="beef" viewBox="0 0 24 24" fill="none" stroke="currentColor" stroke-width="2" stroke-linecap="round" stroke-linejoin="round"><path d="M16.4 13.7A6.5 6.5 0 1 0 6.28 6.6c-1.1 3.13-.78 3.9-3.18 6.08A3 3 0 0 0 5 18c4 0 8.4-1.8 11.4-4.3"/><path d="m18.5 6 1.754 3.5a6.48 6.48 0 0 1-1.854 8.2C15.4 20.2 11 22 7 22a3 3 0 0 1-2.68-1.66L2.4 16.5"/><circle cx="12.5" cy="8.5" r="2.5"/></symbol>
<symbol id="bone" viewBox="0 0 24 24" fill="none" stroke="currentColor" stroke-width="2" stroke-linecap="round" stroke-linejoin="round"><path d="M17 10c.7-.7 1.69 0 2.5 0a2.5 2.5 0 1 0 0-5 .5.5 0 0 1-.5-.5 2.5 2.5 0 1 0-5 0c0 .81.7 1.8 0 2.5l-7 7c-.7.7-1.69 0-2.5 0a2.5 2.5 0 0 0 0 5c.28 0 .5.22.5.5a2.5 2.5 0 1 0 5 0c0-.81-.7-1.8 0-2.5Z"/></symbol>
<symbol id="box" viewBox="0 0 24 24" fill="none" stroke="currentColor" stroke-width="2" stroke-linecap="round" stroke-linejoin="round"><path d="M21 8a2 2 0 0 0-1-1.73l-7-4a2 2 0 0 0-2 0l-7 4A2 2 0 0 0 3 8v8a2 2 0 0 0 1 1.73l7 4a2 2 0 0 0 2 0l7-4A2 2 0 0 0 21 16Z"/><path d="m3.3 7 8.7 5 8.7-5"/><path d="M12 22V12"/></symbol>
<symbol id="brick-wall" viewBox="0 0 24 24" fill="none" stroke="currentColor" stroke-width="2" stroke-linecap="round" stroke-linejoin="round"><rect width="18" height="18" x="3" y="3" rx="2"/><path d="M12 9v6"/><path d="M16 15v6"/><path d="M16 3v6"/><path d="M3 15h18"/><path d="M3 9h18"/><path d="M8 15v6"/><path d="M8 3v6"/></symbol>
<symbol id="briefcase" viewBox="0 0 24 24" fill="none" stroke="currentColor" stroke-width="2" stroke-linecap="round" stroke-linejoin="round"><path d="M16 20V4a2 2 0 0 0-2-2h-4a2 2 0 0 0-2 2v16"/><rect width="20" height="14" x="2" y="6" rx="2"/></symbol>
<symbol id="candy" viewBox="0 0 24 24" fill="none" stroke="currentColor" stroke-width="2" stroke-linecap="round" stroke-linejoin="round"><path d="M10 7v10.9"/><path d="M14 6.1V17"/><path d="M16 7V3a1 1 0 0 1 1.707-.707 2.5 2.5 0 0 0 2.152.717 1 1 0 0 1 1.131 1.131 2.5 2.5 0 0 0 .717 2.152A1 1 0 0 1 21 8h-4"/><path d="M16.536 7.465a5 5 0 0 0-7.072 0l-2 2a5 5 0 0 0 0 7.07 5 5 0 0 0 7.072 0l2-2a5 5 0 0 0 0-7.07"/><path d="M8 17v4a1 1 0 0 1-1.707.707 2.5 2.5 0 0 0-2.152-.717 1 1 0 0 1-1.131-1.131 2.5 2.5 0 0 0-.717-2.152A1 1 0 0 1 3 16h4"/></symbol>
<symbol id="car" viewBox="0 0 24 24" fill="none" stroke="currentColor" stroke-width="2" stroke-linecap="round" stroke-linejoin="round"><path d="M19 17h2c.6 0 1-.4 1-1v-3c0-.9-.7-1.7-1.5-1.9C18.7 10.6 16 10 16 10s-1.3-1.4-2.2-2.3c-.5-.4-1.1-.7-1.8-.7H5c-.6 0-1.1.4-1.4.9l-1.4 2.9A3.7 3.7 0 0 0 2 12v4c0 .6.4 1 1 1h2"/><circle cx="7" cy="17" r="2"/><path d="M9 17h6"/><circle cx="17" cy="17" r="2"/></symbol>
<symbol id="carrot" viewBox="0 0 24 24" fill="none" stroke="currentColor" stroke-width="2" stroke-linecap="round" stroke-linejoin="round"><path d="M15 16a1 1 0 0 0-7-7q-4 4-5.987 12.385a.5.5 0 0 0 .602.602Q11 20 15 16l-3-3"/><path d="M15 9q4 4 7 0-3-4-7 0 4-4 0-7-4 3 0 7"/><path d="m8 15-2.58-2.58"/></symbol>
<symbol id="circle-dot" viewBox="0 0 24 24" fill="none" stroke="currentColor" stroke-width="2" stroke-linecap="round" stroke-linejoin="round"><circle cx="12" cy="12" r="1"/><circle cx="12" cy="12" r="10"/></symbol>
<symbol id="citrus" viewBox="0 0 24 24" fill="none" stroke="currentColor" stroke-width="2" stroke-linecap="round" stroke-linejoin="round"><path d="M21.66 17.67a1.08 1.08 0 0 1-.04 1.6A12 12 0 0 1 4.73 2.38a1.1 1.1 0 0 1 1.61-.04z"/><path d="M19.65 15.66A8 8 0 0 1 8.35 4.34"/><path d="m14 10-5.5 5.5"/><path d="M14 17.85V10H6.15"/></symbol>
<symbol id="cog" viewBox="0 0 24 24" fill="none" stroke="currentColor" stroke-width="2" stroke-linecap="round" stroke-linejoin="round"><path d="M11 10.27 7 3.34"/><path d="m11 13.73-4 6.93"/><path d="M12 22v-2"/><path d="M12 2v2"/><path d="M14 12h8"/><path d="m17 20.66-1-1.73"/><path d="m17 3.34-1 1.73"/><path d="M2 12h2"/><path d="m20.66 17-1.73-1"/><path d="m20.66 7-1.73 1"/><path d="m3.34 17 1.73-1"/><path d="m3.34 7 1.73 1"/><circle cx="12" cy="12" r="2"/><circle cx="12" cy="12" r="8"/></symbol>
<symbol id="croissant" viewBox="0 0 24 24" fill="none" stroke="currentColor" stroke-width="2" stroke-linecap="round" stroke-linejoin="round"><path d="M10.2 18H4.774a1.5 1.5 0 0 1-1.352-.97 11 11 0 0 1 .132-6.487"/><path d="M18 10.2V4.774a1.5 1.5 0 0 0-.97-1.352 11 11 0 0 0-6.486.132"/><path d="M18 5a4 3 0 0 1 4 3 2 2 0 0 1-2 2 10 10 0 0 0-5.139 1.42"/><path d="M5 18a3 4 0 0 0 3 4 2 2 0 0 0 2-2 10 10 0 0 1 1.42-5.14"/><path d="M8.709 2.554a10 10 0 0 0-6.155 6.155 1.5 1.5 0 0 0 .676 1.626l9.807 5.42a2 2 0 0 0 2.718-2.718l-5.42-9.807a1.5 1.5 0 0 0-1.626-.676"/></symbol>
<symbol id="cup-soda" viewBox="0 0 24 24" fill="none" stroke="currentColor" stroke-width="2" stroke-linecap="round" stroke-linejoin="round"><path d="m6 8 1.75 12.28a2 2 0 0 0 2 1.72h4.54a2 2 0 0 0 2-1.72L18 8"/><path d="M5 8h14"/><path d="M7 15a6.47 6.47 0 0 1 5 0 6.47 6.47 0 0 0 5 0"/><path d="m12 8 1-6h2"/></symbol>
<symbol id="droplet" viewBox="0 0 24 24" fill="none" stroke="currentColor" stroke-width="2" stroke-linecap="round" stroke-linejoin="round"><path d="M12 22a7 7 0 0 0 7-7c0-2-1-3.9-3-5.5s-3.5-4-4-6.5c-.5 2.5-2 4.9-4 6.5C6 11.1 5 13 5 15a7 7 0 0 0 7 7z"/></symbol>
<symbol id="droplets" viewBox="0 0 24 24" fill="none" stroke="currentColor" stroke-width="2" stroke-linecap="round" stroke-linejoin="round"><path d="M7 16.3c2.2 0 4-1.83 4-4.05 0-1.16-.57-2.26-1.71-3.19S7.29 6.75 7 5.3c-.29 1.45-1.14 2.84-2.29 3.76S3 11.1 3 12.25c0 2.22 1.8 4.05 4 4.05z"/><path d="M12.56 6.6A10.97 10.97 0 0 0 14 3.02c.5 2.5 2 4.9 4 6.5s3 3.5 3 5.5a6.98 6.98 0 0 1-11.91 4.97"/></symbol>
<symbol id="drumstick" viewBox="0 0 24 24" fill="none" stroke="currentColor" stroke-width="2" stroke-linecap="round" stroke-linejoin="round"><path d="M15.4 15.63a7.875 6 135 1 1 6.23-6.23 4.5 3.43 135 0 0-6.23 6.23"/><path d="m8.29 12.71-2.6 2.6a2.5 2.5 0 1 0-1.65 4.65A2.5 2.5 0 1 0 8.7 18.3l2.59-2.59"/></symbol>
<symbol id="factory" viewBox="0 0 24 24" fill="none" stroke="currentColor" stroke-width="2" stroke-linecap="round" stroke-linejoin="round"><path d="M12 16h.01"/><path d="M16 16h.01"/><path d="M3 19a2 2 0 0 0 2 2h14a2 2 0 0 0 2-2V8.5a.5.5 0 0 0-.769-.422l-4.462 2.844A.5.5 0 0 1 15 10.5v-2a.5.5 0 0 0-.769-.422L9.77 10.922A.5.5 0 0 1 9 10.5V5a2 2 0 0 0-2-2H5a2 2 0 0 0-2 2z"/><path d="M8 16h.01"/></symbol>
<symbol id="fish" viewBox="0 0 24 24" fill="none" stroke="currentColor" stroke-width="2" stroke-linecap="round" stroke-linejoin="round"><path d="M6.5 12c.94-3.46 4.94-6 8.5-6 3.56 0 6.06 2.54 7 6-.94 3.47-3.44 6-7 6s-7.56-2.53-8.5-6Z"/><path d="M18 12v.5"/><path d="M16 17.93a9.77 9.77 0 0 1 0-11.86"/><path d="M7 10.67C7 8 5.58 5.97 2.73 5.5c-1 1.5-1 5 .23 6.5-1.24 1.5-1.24 5-.23 6.5C5.58 18.03 7 16 7 13.33"/><path d="M10.46 7.26C10.2 5.88 9.17 4.24 8 3h5.8a2 2 0 0 1 1.98 1.67l.23 1.4"/><path d="m16.01 17.93-.23 1.4A2 2 0 0 1 13.8 21H9.5a5.96 5.96 0 0 0 1.49-3.98"/></symbol>
<symbol id="flame" viewBox="0 0 24 24" fill="none" stroke="currentColor" stroke-width="2" stroke-linecap="round" stroke-linejoin="round"><path d="M12 3q1 4 4 6.5t3 5.5a1 1 0 0 1-14 0 5 5 0 0 1 1-3 1 1 0 0 0 5 0c0-2-1.5-3-1.5-5q0-2 2.5-4"/></symbol>
<symbol id="flask-conical" viewBox="0 0 24 24" fill="none" stroke="currentColor" stroke-width="2" stroke-linecap="round" stroke-linejoin="round"><path d="M14 2v6a2 2 0 0 0 .245.96l5.51 10.08A2 2 0 0 1 18 22H6a2 2 0 0 1-1.755-2.96l5.51-10.08A2 2 0 0 0 10 8V2"/><path d="M6.453 15h11.094"/><path d="M8.5 2h7"/></symbol>
<symbol id="footprints" viewBox="0 0 24 24" fill="none" stroke="currentColor" stroke-width="2" stroke-linecap="round" stroke-linejoin="round"><path d="M4 16v-2.38C4 11.5 2.97 10.5 3 8c.03-2.72 1.49-6 4.5-6C9.37 2 10 3.8 10 5.5c0 3.11-2 5.66-2 8.68V16a2 2 0 1 1-4 0Z"/><path d="M20 20v-2.38c0-2.12 1.03-3.12 1-5.62-.03-2.72-1.49-6-4.5-6C14.63 6 14 7.8 14 9.5c0 3.11 2 5.66 2 8.68V20a2 2 0 1 0 4 0Z"/><path d="M16 17h4"/><path d="M4 13h4"/></symbol>
<symbol id="fuel" viewBox="0 0 24 24" fill="none" stroke="currentColor" stroke-width="2" stroke-linecap="round" stroke-linejoin="round"><path d="M14 13h2a2 2 0 0 1 2 2v2a2 2 0 0 0 4 0v-6.998a2 2 0 0 0-.59-1.42L18 5"/><path d="M14 21V5a2 2 0 0 0-2-2H5a2 2 0 0 0-2 2v16"/><path d="M2 21h13"/><path d="M3 9h11"/></symbol>
<symbol id="gem" viewBox="0 0 24 24" fill="none" stroke="currentColor" stroke-width="2" stroke-linecap="round" stroke-linejoin="round"><path d="M10.5 3 8 9l4 13 4-13-2.5-6"/><path d="M17 3a2 2 0 0 1 1.6.8l3 4a2 2 0 0 1 .013 2.382l-7.99 10.986a2 2 0 0 1-3.247 0l-7.99-10.986A2 2 0 0 1 2.4 7.8l2.998-3.997A2 2 0 0 1 7 3z"/><path d="M2 9h20"/></symbol>
<symbol id="grape" viewBox="0 0 24 24" fill="none" stroke="currentColor" stroke-width="2" stroke-linecap="round" stroke-linejoin="round"><path d="M22 5V2l-5.89 5.89"/><circle cx="16.6" cy="15.89" r="3"/><circle cx="8.11" cy="7.4" r="3"/><circle cx="12.35" cy="11.65" r="3"/><circle cx="13.91" cy="5.85" r="3"/><circle cx="18.15" cy="10.09" r="3"/><circle cx="6.56" cy="13.2" r="3"/><circle cx="10.8" cy="17.44" r="3"/><circle cx="5" cy="19" r="3"/></symbol>
<symbol id="hexagon" viewBox="0 0 24 24" fill="none" stroke="currentColor" stroke-width="2" stroke-linecap="round" stroke-linejoin="round"><path d="M21 16V8a2 2 0 0 0-1-1.73l-7-4a2 2 0 0 0-2 0l-7 4A2 2 0 0 0 3 8v8a2 2 0 0 0 1 1.73l7 4a2 2 0 0 0 2 0l7-4A2 2 0 0 0 21 16z"/></symbol>
<symbol id="leaf" viewBox="0 0 24 24" fill="none" stroke="currentColor" stroke-width="2" stroke-linecap="round" stroke-linejoin="round"><path d="M11 20a10 10 0 0010-10 25.9 25.9 0 00-1.04-7.281 1 1 0 00-1.755-.325C15.833 5.5 13 5.5 9.8 6.1A7 7 0 0011 20"/><path d="M2 21a5 5 0 012.911-4.544C7.613 15.212 8.351 15.24 11 13"/></symbol>
<symbol id="milk" viewBox="0 0 24 24" fill="none" stroke="currentColor" stroke-width="2" stroke-linecap="round" stroke-linejoin="round"><path d="M8 2h8"/><path d="M9 2v2.789a4 4 0 0 1-.672 2.219l-.656.984A4 4 0 0 0 7 10.212V20a2 2 0 0 0 2 2h6a2 2 0 0 0 2-2v-9.789a4 4 0 0 0-.672-2.219l-.656-.984A4 4 0 0 1 15 4.788V2"/><path d="M7 15a6.472 6.472 0 0 1 5 0 6.47 6.47 0 0 0 5 0"/></symbol>
<symbol id="nut" viewBox="0 0 24 24" fill="none" stroke="currentColor" stroke-width="2" stroke-linecap="round" stroke-linejoin="round"><path d="M16.847 5.847 20 9a7.23 7.23 0 011.551 7.516C21.241 17.352 21 17.932 21 19v1a1 1 0 01-1 1h-1c-1.069 0-1.648.242-2.485.552A7.2 7.2 0 019.002 20l-3.155-3.153"/><path d="M18.21 5.43c-1.71.69-5.07 1.07-6.71 1.07.46 1.38.91 2.74.61 4.88a.88.88 0 01-.73.74c-1.78.28-3.54-.17-4.88-.62 0 1.64-.38 5-1.07 6.71-.21.52-.82.55-1.17.12A10 10 0 0118.33 4.26c.43.35.4.97-.12 1.17"/><path d="M4.93 4.93 3 3a.7.7 0 010-1"/></symbol>
<symbol id="package" viewBox="0 0 24 24" fill="none" stroke="currentColor" stroke-width="2" stroke-linecap="round" stroke-linejoin="round"><path d="M11 21.73a2 2 0 0 0 2 0l7-4A2 2 0 0 0 21 16V8a2 2 0 0 0-1-1.73l-7-4a2 2 0 0 0-2 0l-7 4A2 2 0 0 0 3 8v8a2 2 0 0 0 1 1.73z"/><path d="M12 22V12"/><polyline points="3.29 7 12 12 20.71 7"/><path d="m7.5 4.27 9 5.15"/></symbol>
<symbol id="paw-print" viewBox="0 0 24 24" fill="none" stroke="currentColor" stroke-width="2" stroke-linecap="round" stroke-linejoin="round"><circle cx="11" cy="4" r="2"/><circle cx="18" cy="8" r="2"/><circle cx="20" cy="16" r="2"/><path d="M9 10a5 5 0 0 1 5 5v3.5a3.5 3.5 0 0 1-6.84 1.045Q6.52 17.48 4.46 16.84A3.5 3.5 0 0 1 5.5 10Z"/></symbol>
<symbol id="pickaxe" viewBox="0 0 24 24" fill="none" stroke="currentColor" stroke-width="2" stroke-linecap="round" stroke-linejoin="round"><path d="m14 13-8.381 8.38a1 1 0 0 1-3.001-3L11 9.999"/><path d="M15.973 4.027A13 13 0 0 0 5.902 2.373c-1.398.342-1.092 2.158.277 2.601a19.9 19.9 0 0 1 5.822 3.024"/><path d="M16.001 11.999a19.9 19.9 0 0 1 3.024 5.824c.444 1.369 2.26 1.676 2.603.278A13 13 0 0 0 20 8.069"/><path d="M18.352 3.352a1.205 1.205 0 0 0-1.704 0l-5.296 5.296a1.205 1.205 0 0 0 0 1.704l2.296 2.296a1.205 1.205 0 0 0 1.704 0l5.296-5.296a1.205 1.205 0 0 0 0-1.704z"/></symbol>
<symbol id="pill" viewBox="0 0 24 24" fill="none" stroke="currentColor" stroke-width="2" stroke-linecap="round" stroke-linejoin="round"><path d="m10.5 20.5 10-10a4.95 4.95 0 1 0-7-7l-10 10a4.95 4.95 0 1 0 7 7Z"/><path d="m8.5 8.5 7 7"/></symbol>
<symbol id="plane" viewBox="0 0 24 24" fill="none" stroke="currentColor" stroke-width="2" stroke-linecap="round" stroke-linejoin="round"><path d="M17.8 19.2 16 11l3.5-3.5C21 6 21.5 4 21 3c-1-.5-3 0-4.5 1.5L13 8 4.8 6.2c-.5-.1-.9.1-1.1.5l-.3.5c-.2.5-.1 1 .3 1.3L9 12l-2 3H4l-1 1 3 2 2 3 1-1v-3l3-2 3.5 5.3c.3.4.8.5 1.3.3l.5-.2c.4-.3.6-.7.5-1.2z"/></symbol>
<symbol id="salad" viewBox="0 0 24 24" fill="none" stroke="currentColor" stroke-width="2" stroke-linecap="round" stroke-linejoin="round"><path d="M19.496 12a2.5 2.5 0 00.399-2.214A2 2 0 0020.32 6.5 2 2 0 0019 3a2 2 0 00-1.5.68 2 2 0 00-3.287.424 2.5 2.5 0 00-3.189 2.06A3 3 0 0012 12l4-4"/><path d="M4 12a1 1 0 00-.99 1.133A9 9 0 0012 21a9 9 0 008.99-7.867A1 1 0 0020 12z"/><path d="M7 21h10"/><path d="M9.85 6.907A3.5 3.5 0 005.05 12"/></symbol>
<symbol id="scroll" viewBox="0 0 24 24" fill="none" stroke="currentColor" stroke-width="2" stroke-linecap="round" stroke-linejoin="round"><path d="M19 17V5a2 2 0 0 0-2-2H4"/><path d="M8 21h12a2 2 0 0 0 2-2v-1a1 1 0 0 0-1-1H11a1 1 0 0 0-1 1v1a2 2 0 1 1-4 0V5a2 2 0 1 0-4 0v2a1 1 0 0 0 1 1h3"/></symbol>
<symbol id="ship" viewBox="0 0 24 24" fill="none" stroke="currentColor" stroke-width="2" stroke-linecap="round" stroke-linejoin="round"><path d="M12 2v2"/><path d="M12 9.189V13"/><path d="M19 12V6a2 2 0 00-2-2H7a2 2 0 00-2 2v6"/><path d="M19.38 19A11.6 11.6 0 0021 13l-8.188-3.639a2 2 0 00-1.624 0L3 13.001a11.6 11.6 0 002.81 7.76"/><path d="M2 20c.6.5 1.2 1 2.5 1 2.5 0 2.5-2 5-2 1.3 0 1.9.5 2.5 1s1.2 1 2.5 1c2.5 0 2.5-2 5-2 1.3 0 1.9.5 2.5 1"/></symbol>
<symbol id="shirt" viewBox="0 0 24 24" fill="none" stroke="currentColor" stroke-width="2" stroke-linecap="round" stroke-linejoin="round"><path d="M20.38 3.46 16 2a4 4 0 0 1-8 0L3.62 3.46a2 2 0 0 0-1.34 2.23l.58 3.47a1 1 0 0 0 .99.84H6v10c0 1.1.9 2 2 2h8a2 2 0 0 0 2-2V10h2.15a1 1 0 0 0 .99-.84l.58-3.47a2 2 0 0 0-1.34-2.23z"/></symbol>
<symbol id="shrimp" viewBox="0 0 24 24" fill="none" stroke="currentColor" stroke-width="2" stroke-linecap="round" stroke-linejoin="round"><path d="M10 2a3.28 3.28 0 003.227 1.798l6.17-.561A1 1 0 1119.614 8H8.5a6.44 6.44 0 00-5.63 9.75A6.5 6.5 0 008.5 21c1.38 0 2-.5 2.5-1"/><path d="M10 8a8.5 8.5 0 000 8"/><path d="M11 22c-.5-.5-1.12-1-2.5-1a1 1 0 010-5H12a7 7 0 007-7V8"/><path d="M13 12h.01"/><path d="M8 16c-2 0-4.5-4-4-6"/></symbol>
<symbol id="spray-can" viewBox="0 0 24 24" fill="none" stroke="currentColor" stroke-width="2" stroke-linecap="round" stroke-linejoin="round"><path d="M3 3h.01"/><path d="M7 5h.01"/><path d="M11 7h.01"/><path d="M3 7h.01"/><path d="M7 9h.01"/><path d="M3 11h.01"/><rect width="4" height="4" x="15" y="5"/><path d="m19 9 2 2v10c0 .6-.4 1-1 1h-6c-.6 0-1-.4-1-1V11l2-2"/><path d="m13 14 8-2"/><path d="m13 19 8-2"/></symbol>
<symbol id="sprout" viewBox="0 0 24 24" fill="none" stroke="currentColor" stroke-width="2" stroke-linecap="round" stroke-linejoin="round"><path d="M14 9.536V7a4 4 0 0 1 4-4h1.5a.5.5 0 0 1 .5.5V5a4 4 0 0 1-4 4 4 4 0 0 0-4 4c0 2 1 3 1 5a5 5 0 0 1-1 3"/><path d="M4 9a5 5 0 0 1 8 4 5 5 0 0 1-8-4"/><path d="M5 21h14"/></symbol>
<symbol id="trees" viewBox="0 0 24 24" fill="none" stroke="currentColor" stroke-width="2" stroke-linecap="round" stroke-linejoin="round"><path d="M10 10v.2A3 3 0 0 1 8.9 16H5a3 3 0 0 1-1-5.8V10a3 3 0 0 1 6 0Z"/><path d="M7 16v6"/><path d="M13 19v3"/><path d="M12 19h8.3a1 1 0 0 0 .7-1.7L18 14h.3a1 1 0 0 0 .7-1.7L16 9h.2a1 1 0 0 0 .8-1.7L13 3l-1.4 1.5"/></symbol>
<symbol id="wheat" viewBox="0 0 24 24" fill="none" stroke="currentColor" stroke-width="2" stroke-linecap="round" stroke-linejoin="round"><path d="M2 22 16 8"/><path d="M3.47 12.53 5 11l1.53 1.53a3.5 3.5 0 0 1 0 4.94L5 19l-1.53-1.53a3.5 3.5 0 0 1 0-4.94Z"/><path d="M7.47 8.53 9 7l1.53 1.53a3.5 3.5 0 0 1 0 4.94L9 15l-1.53-1.53a3.5 3.5 0 0 1 0-4.94Z"/><path d="M11.47 4.53 13 3l1.53 1.53a3.5 3.5 0 0 1 0 4.94L13 11l-1.53-1.53a3.5 3.5 0 0 1 0-4.94Z"/><path d="M20 2h2v2a4 4 0 0 1-4 4h-2V6a4 4 0 0 1 4-4Z"/><path d="M11.47 17.47 13 19l-1.53 1.53a3.5 3.5 0 0 1-4.94 0L5 19l1.53-1.53a3.5 3.5 0 0 1 4.94 0Z"/><path d="M15.47 13.47 17 15l-1.53 1.53a3.5 3.5 0 0 1-4.94 0L9 15l1.53-1.53a3.5 3.5 0 0 1 4.94 0Z"/><path d="M19.47 9.47 21 11l-1.53 1.53a3.5 3.5 0 0 1-4.94 0L13 11l1.53-1.53a3.5 3.5 0 0 1 4.94 0Z"/></symbol>
<symbol id="wine" viewBox="0 0 24 24" fill="none" stroke="currentColor" stroke-width="2" stroke-linecap="round" stroke-linejoin="round"><path d="M8 22h8"/><path d="M7 10h10"/><path d="M12 15v7"/><path d="M12 15a5 5 0 0 0 5-5c0-2-.5-4-2-8H9c-1.5 4-2 6-2 8a5 5 0 0 0 5 5Z"/></symbol>
<symbol id="zap" viewBox="0 0 24 24" fill="none" stroke="currentColor" stroke-width="2" stroke-linecap="round" stroke-linejoin="round"><path d="M15.914 4a1.5 1.5 0 00-2.474-1.561l-9 9A1.5 1.5 0 005.5 14h4.002a.5.5 0 01.471.666L8.086 20a1.5 1.5 0 002.475 1.56l9-9A1.5 1.5 0 0018.5 10h-3.997a.5.5 0 01-.472-.667z"/></symbol>
</svg>
